<svg xmlns="http://www.w3.org/2000/svg" xmlns:xlink="http://www.w3.org/1999/xlink" xmlns:lucid="lucid" width="660" height="240"><g transform="translate(-120 -130)" lucid:page-tab-id="0_0"><path d="M240 250c0 16.57-22.4 30-50 30s-50-13.43-50-30 22.4-30 50-30 50 13.43 50 30z" stroke="#000" stroke-width="2" fill="#c7e8ac"/><use xlink:href="#a" transform="matrix(1,0,0,1,145,225) translate(11.591999999999999 31.39)"/><path d="M460 250c0 16.57-22.4 30-50 30s-50-13.43-50-30 22.4-30 50-30 50 13.43 50 30z" stroke="#000" stroke-width="2" fill="#fff"/><use xlink:href="#b" transform="matrix(1,0,0,1,365,225) translate(29.448 31.39)"/><path d="M760 180c0 16.57-35.82 30-80 30s-80-13.43-80-30 35.82-30 80-30 80 13.43 80 30z" stroke="#000" stroke-width="2" fill="#fff"/><use xlink:href="#c" transform="matrix(1,0,0,1,605,155) translate(7.905000000000015 31.39)"/><path d="M760 320c0 16.57-35.82 30-80 30s-80-13.43-80-30 35.82-30 80-30 80 13.43 80 30z" stroke="#000" stroke-width="2" fill="#fff"/><use xlink:href="#d" transform="matrix(1,0,0,1,605,295) translate(0.8850000000000051 31.39)"/><path d="M240 160h120v40H240z" stroke="#000" stroke-opacity="0" stroke-width=".5" fill="#fff"/><use xlink:href="#e" transform="matrix(1,0,0,1,245,165) translate(2.5749999999999957 21.39)"/><path d="M190.02 218.5l.17-3.25.5-3.47.84-3.25 1.12-3.1 1.44-2.95 1.75-2.87 2.13-2.78 2.54-2.72 3.02-2.65 3.58-2.56 4.2-2.42 4.93-2.2 5.64-1.87 6.3-1.4 6.8-.82 4.5-.16" stroke="#000" fill="none"/><path d="M190.52 218.5l-.02.52-.5-.02-.5.02.03-.56zM240 180.5l-.5.02-.03-1 .53-.02z"/><path d="M360.5 180.03l4.68.3 4.7.9 4.35 1.4 4.06 1.92 3.82 2.43 3.6 3 3.4 3.62 3.14 4.34 2.8 5.12.36.92" stroke="#000" fill="none"/><path d="M360.54 179.53l-.06 1-.48-.03v-1z"/><path d="M399.3 218.17l-8.24-12.54 8.94-2.45z" stroke="#000"/><path d="M240 300h120v40H240z" stroke="#000" stroke-opacity="0" stroke-width=".5" fill="#fff"/><use xlink:href="#f" transform="matrix(1,0,0,1,245,305) translate(3.7989999999999995 21.39)"/><path d="M190.02 281.5l.17 3.25.5 3.47.84 3.25 1.12 3.1 1.44 2.95 1.75 2.87 2.13 2.78 2.54 2.72 3.02 2.65 3.58 2.56 4.2 2.42 4.93 2.2 5.64 1.87 6.3 1.4 6.8.82 4.5.16" stroke="#000" fill="none"/><path d="M190 281l.5-.02.02.5-1 .06-.02-.56zM240 319.5v1l-.53-.02.04-1z"/><path d="M360.5 319.97l4.64-.3 4.63-.87 4.25-1.38 3.97-1.87 3.74-2.4 3.57-2.96 3.4-3.65 3.2-4.44 2.95-5.38.3-.73" stroke="#000" fill="none"/><path d="M360.54 320.47l-.54.03v-1l.48-.03z"/><path d="M399.25 281.85l.47 15-8.9-2.6z" stroke="#000"/><path d="M480 160h80v40h-80z" stroke="#000" stroke-opacity="0" stroke-width=".5" fill="#fff"/><use xlink:href="#g" transform="matrix(1,0,0,1,485,165) translate(1.7360000000000042 21.39)"/><path d="M425.65 220l.8-4.08 1.24-4.16 1.5-3.82 1.82-3.54 2.1-3.3 2.37-3.1 2.7-2.92 3.05-2.74 3.45-2.56 3.9-2.38 4.4-2.15 4.95-1.9 5.56-1.54 6.23-1.12 6.85-.6 2.92-.07" stroke="#000" fill="none"/><path d="M426.14 220.08l-.1.5-.98-.16.1-.53zM480 180.5h-.5l-.02-1h.52z"/><path d="M560.5 180h22.12" stroke="#000" fill="none"/><path d="M560.5 180.5h-.5v-1h.5z"/><path d="M597.38 180l-14.26 4.64v-9.28z" stroke="#000"/><path d="M480 300h80v40h-80z" stroke="#000" stroke-opacity="0" stroke-width=".5" fill="#fff"/><use xlink:href="#h" transform="matrix(1,0,0,1,485,305) translate(-4.960000000000001 21.39)"/><path d="M420.35 280.77l.53 3.24.86 3.4 1.08 3.16 1.3 2.95 1.5 2.78 1.73 2.65 2 2.53 2.26 2.44 2.6 2.37 3 2.3 3.46 2.2 4 2.14 4.7 2 5.48 1.82 6.4 1.53 7.43 1.14 8.42.56 2.4.03" stroke="#000" fill="none"/><path d="M420.85 280.7l-1 .16-.07-.53 1-.12zM480 319.5v1h-.52v-1z"/><path d="M560.5 320h22.12" stroke="#000" fill="none"/><path d="M560.5 320.5h-.5v-1h.5z"/><path d="M597.38 320l-14.26 4.64v-9.28z" stroke="#000"/><path d="M560 230h40v40h-40z" stroke="#000" stroke-opacity="0" stroke-width=".5" fill="#fff"/><use xlink:href="#i" transform="matrix(1,0,0,1,565,235) translate(-3.1259999999999977 21.39)"/><path d="M679.98 211.5l-.06 2.04-.2 2.32-.35 2.12-.44 1.98-.53 1.84-.62 1.74-.7 1.66-.82 1.58-.9 1.53-1 1.5-1.12 1.45-1.25 1.43-1.4 1.4-1.6 1.42-1.78 1.4-2.05 1.4-2.37 1.42-2.76 1.43-3.28 1.43-3.94 1.45-4.85 1.44-6.12 1.4-8.02 1.32-11.2 1.12-18.54.66-3.6.02" stroke="#000" fill="none"/><path d="M680 211h.5l-.02.53-1-.03.02-.5zM600.5 250.5h-.5v-1h.5z"/><path d="M679.98 288.5l-.06-2.04-.2-2.32-.35-2.12-.44-1.98-.53-1.84-.62-1.74-.7-1.66-.82-1.58-.9-1.53-1-1.5-1.12-1.45-1.25-1.43-1.4-1.4-1.6-1.42-1.78-1.4-2.05-1.4-2.37-1.42-2.76-1.43-3.28-1.43-3.94-1.45-4.85-1.44-6.12-1.4-8.02-1.32-11.2-1.12-18.54-.66-3.6-.02" stroke="#000" fill="none"/><path d="M680.5 289.02l-.5-.02h-.5l-.02-.5 1-.03zM600.5 249.5v1h-.5v-1z"/><path d="M559.5 250h-82.12" stroke="#000" fill="none"/><path d="M560 250.5h-.5v-1h.5z"/><path d="M462.62 250l14.26-4.64v9.28z" stroke="#000"/><defs><path d="M199 12C137 13 92 3 48-12c3-29 14-57 23-81 80 40 280 38 231-86-16-41-77-44-119-63-71-30-122-50-122-135 0-101 79-148 191-148 51 0 105 12 142 25-3 28-11 56-21 77-31-11-74-23-118-23-73 0-133 65-68 108 83 54 228 46 222 185C404-38 318 9 199 12" id="j"/><path d="M252 8C153 7 99-38 99-143v-291H21l-4-14 172-192h8v127h130c6 23 5 56 0 79H197v234c1 73 0 128 75 128 22 0 42-4 59-8 9 22 10 51 10 78-27 7-56 10-89 10" id="k"/><path d="M527-256c0 162-77 268-239 268S49-94 49-256c0-163 77-269 239-269s239 106 239 269zm-373 0c0 107 33 189 134 189s135-82 135-189-34-188-135-188-134 81-134 188" id="l"/><path d="M178 236c-30 5-69 5-99 0v-749c25-5 59-5 84 0 4 20 7 50 10 72 31-48 78-84 156-84 148 0 204 103 208 256C543-65 386 49 178 1v235zm129-675c-84 2-129 58-129 147v208c29 10 50 13 91 13 114 0 164-77 164-194 0-98-30-177-126-174" id="m"/><path d="M291-525c162 0 229 122 212 293H154c2 110 56 161 166 162 47 0 92-8 135-25 10 19 18 51 19 79-45 19-96 28-160 28C139 11 49-81 49-253c0-164 78-272 242-272zm117 219c-3-82-37-140-120-140-87 0-124 58-133 140h253" id="n"/><path d="M52-247c-2-202 150-315 357-263v-223c30-5 68-5 98 0v719C452 1 390 13 317 12 147 10 53-74 52-247zm105 0C150-94 269-47 409-80v-346c-26-11-56-16-93-16-113 0-154 81-159 195" id="o"/><g id="a"><use transform="matrix(0.018,0,0,0.018,0,0)" xlink:href="#j"/><use transform="matrix(0.018,0,0,0.018,8.19,0)" xlink:href="#k"/><use transform="matrix(0.018,0,0,0.018,14.634,0)" xlink:href="#l"/><use transform="matrix(0.018,0,0,0.018,25.02,0)" xlink:href="#m"/><use transform="matrix(0.018,0,0,0.018,35.64,0)" xlink:href="#m"/><use transform="matrix(0.018,0,0,0.018,46.26,0)" xlink:href="#n"/><use transform="matrix(0.018,0,0,0.018,56.268,0)" xlink:href="#o"/></g><path d="M207 0c-30 5-67 5-97 0v-435H45c-5-22-5-56 0-78h162V0zm-12-626c-33 5-74 5-107 0-4-31-4-71 0-101 33-5 74-5 107 0 4 31 4 70 0 101" id="p"/><path d="M288-1C175 26 78-12 78-133v-600c30-5 68-5 98 0v578c-8 70 38 94 103 78 6 23 9 49 9 76" id="q"/><g id="b"><use transform="matrix(0.018,0,0,0.018,0,0)" xlink:href="#p"/><use transform="matrix(0.018,0,0,0.018,5.183999999999999,0)" xlink:href="#o"/><use transform="matrix(0.018,0,0,0.018,15.732,0)" xlink:href="#q"/><use transform="matrix(0.018,0,0,0.018,21.096,0)" xlink:href="#n"/></g><path d="M179 0c-30 5-69 5-99 0v-513c26-5 58-5 84 0 4 18 9 60 9 81 28-52 72-92 150-93 82-1 118 35 142 93 31-49 71-93 150-93 124 0 169 72 170 198V0c-30 5-69 5-99 0v-298c-1-81-17-138-90-138-76 0-114 61-114 146V0c-30 5-68 5-98 0v-305c-1-77-15-134-84-134-172 0-109 266-121 439" id="r"/><path d="M17-513c34-5 77-6 111 0L268-90l141-423c32-6 73-5 105 0L314 0c-31 5-68 5-98 0" id="s"/><path d="M179 0c-30 5-69 5-99 0v-513c26-5 58-5 84 0 4 18 9 62 9 83 33-51 81-95 164-95 123 0 172 74 172 200V0c-30 5-69 5-99 0v-298c-1-83-18-138-92-138-188 0-129 255-139 436" id="t"/><path d="M192-174c-26 12-60 61-28 92 76 37 259-7 320 54 40 40 54 120 19 172-46 69-139 105-255 105-119 0-211-26-211-133C37 56 75 13 116-9 91-26 69-49 69-90c0-55 28-86 61-112-40-28-75-76-73-142 4-120 84-178 209-181 60-1 110 20 144 46 28-22 78-38 129-37 6 26 5 62 0 89h-90c14 22 23 47 23 83 0 143-134 201-280 170zm61 345c86 1 165-25 170-93 6-87-123-58-203-65-55-5-90 34-90 84 0 64 58 73 123 74zm-92-515c0 65 36 107 105 107s106-42 106-107c0-66-37-109-106-109-70 0-105 43-105 109" id="u"/><path d="M6 88c-7-21-7-52 0-73h494c5 22 5 51 0 73H6" id="v"/><path d="M214 0c-30 5-69 5-99 0v-435H31c-5-20-5-57 0-78h84c-20-177 97-262 266-220-3 33-7 53-15 80-17-3-34-7-56-7-85 0-100 59-96 147h131c4 25 4 53 0 78H214V0" id="w"/><path d="M179 0c-30 5-69 5-99 0v-513c25-5 59-5 84 0 4 18 9 60 9 81 31-50 86-96 175-82 7 27 4 63-1 90-117-14-168 53-168 169V0" id="x"/><path d="M22-513c33-5 75-6 107 0L229-94l113-419c30-6 71-4 101 0l112 412 100-412c30-6 67-5 98 0L600 0c-32 5-69 5-101 0L389-388 274 0c-32 5-70 6-101 0" id="y"/><path d="M147-154c0 102 122 93 204 76v-163c-92-14-204-10-204 87zm-99 2c0-149 148-187 303-167 6-90-33-124-117-124-48 0-87 9-125 20-13-22-19-48-19-79 41-14 101-23 154-23 133 1 204 57 204 191v321C399-2 324 13 261 12 136 11 48-29 48-152" id="z"/><g id="c"><use transform="matrix(0.018,0,0,0.018,0,0)" xlink:href="#r"/><use transform="matrix(0.018,0,0,0.018,15.371999999999998,0)" xlink:href="#l"/><use transform="matrix(0.018,0,0,0.018,25.757999999999996,0)" xlink:href="#s"/><use transform="matrix(0.018,0,0,0.018,35.315999999999995,0)" xlink:href="#p"/><use transform="matrix(0.018,0,0,0.018,40.5,0)" xlink:href="#t"/><use transform="matrix(0.018,0,0,0.018,50.903999999999996,0)" xlink:href="#u"/><use transform="matrix(0.018,0,0,0.018,60.858,0)" xlink:href="#v"/><use transform="matrix(0.018,0,0,0.018,69.948,0)" xlink:href="#w"/><use transform="matrix(0.018,0,0,0.018,76.60799999999999,0)" xlink:href="#l"/><use transform="matrix(0.018,0,0,0.018,86.994,0)" xlink:href="#x"/><use transform="matrix(0.018,0,0,0.018,93.68999999999998,0)" xlink:href="#y"/><use transform="matrix(0.018,0,0,0.018,107.63999999999999,0)" xlink:href="#z"/><use transform="matrix(0.018,0,0,0.018,116.946,0)" xlink:href="#x"/><use transform="matrix(0.018,0,0,0.018,123.64199999999997,0)" xlink:href="#o"/></g><path d="M248 12C192 12 120-2 79-16v-717c30-5 69-5 99 0v282c25-40 79-76 148-74 149 4 210 102 211 256C538-91 430 12 248 12zm59-452c-83 0-128 53-129 142v215c23 8 51 11 81 11 117-3 173-73 173-193 0-101-28-175-125-175" id="A"/><path d="M315-71c44 0 74-5 107-18 11 18 20 50 21 78-39 15-84 23-135 23C140 15 50-92 50-256c0-165 86-269 251-269 56 0 95 6 135 21 0 26-8 61-17 79-33-11-70-17-112-17-106-1-153 79-153 186 0 119 52 185 161 185" id="B"/><path d="M175 0c-30 5-69 5-99 0v-733c30-5 69-5 99 0V0zm327 0c-34 5-76 5-110 0L202-266l163-247c33-5 75-5 109 0L311-273" id="C"/><g id="d"><use transform="matrix(0.018,0,0,0.018,0,0)" xlink:href="#r"/><use transform="matrix(0.018,0,0,0.018,15.371999999999998,0)" xlink:href="#l"/><use transform="matrix(0.018,0,0,0.018,25.757999999999996,0)" xlink:href="#s"/><use transform="matrix(0.018,0,0,0.018,35.315999999999995,0)" xlink:href="#p"/><use transform="matrix(0.018,0,0,0.018,40.5,0)" xlink:href="#t"/><use transform="matrix(0.018,0,0,0.018,50.903999999999996,0)" xlink:href="#u"/><use transform="matrix(0.018,0,0,0.018,60.858,0)" xlink:href="#v"/><use transform="matrix(0.018,0,0,0.018,69.948,0)" xlink:href="#A"/><use transform="matrix(0.018,0,0,0.018,80.568,0)" xlink:href="#z"/><use transform="matrix(0.018,0,0,0.018,89.874,0)" xlink:href="#B"/><use transform="matrix(0.018,0,0,0.018,98.478,0)" xlink:href="#C"/><use transform="matrix(0.018,0,0,0.018,107.72999999999999,0)" xlink:href="#y"/><use transform="matrix(0.018,0,0,0.018,121.67999999999999,0)" xlink:href="#z"/><use transform="matrix(0.018,0,0,0.018,130.986,0)" xlink:href="#x"/><use transform="matrix(0.018,0,0,0.018,137.682,0)" xlink:href="#o"/></g><path d="M193-98c46 0 94-11 94-56 0-58-73-55-117-71-69-25-119-52-119-142 0-108 88-164 203-162 59 0 107 11 154 28-3 36-15 77-29 103-31-12-71-25-114-25-39 0-72 9-72 44 0 52 68 51 109 65 71 25 127 58 123 151C420-41 326 9 198 12 134 14 87 2 40-16c3-40 15-77 29-108 40 15 74 26 124 26" id="D"/><path d="M271 6C148 5 83-48 84-175v-234H19l-5-20 187-239h23v151h121c7 33 6 74 0 108H224v203c0 62 14 99 76 99 19 0 40-4 55-7 11 30 16 71 11 109-31 7-62 11-95 11" id="E"/><path d="M171-168c0 77 92 76 157 63v-132c-70-12-157-5-157 69zm-133 6c0-145 139-179 290-166 10-118-139-96-225-68-17-34-28-56-28-104 50-17 109-29 170-29 140 0 221 65 221 210v300C413-3 343 13 268 12 135 11 38-29 38-162" id="F"/><path d="M212 1c-44 7-98 7-142 0v-518c35-8 82-8 116 1 9 19 12 48 16 73 33-47 89-97 176-76 7 38 5 89-3 125-112-16-163 37-163 149V1" id="G"/><path d="M7 100C0 70 0 32 7 2h490c7 30 7 68 0 98H7" id="H"/><path d="M293-529c170 0 246 134 222 314H183c4 80 59 113 142 114 50 0 99-10 137-25 15 27 27 67 28 108-52 20-111 30-176 30C136 11 43-81 43-255c0-165 84-274 250-274zm93 215c-2-60-34-108-95-107-70 0-100 42-107 107h202" id="I"/><path d="M312-404c-75 0-100 53-100 133V0c-48 8-94 8-142 0v-517c34-8 82-8 116 0 9 19 12 48 16 72 31-45 74-84 149-84 124 0 177 68 177 199V0c-48 8-94 8-142 0v-292c-1-65-13-112-74-112" id="J"/><path d="M195-172c-25 12-34 51-15 73 39 21 123 11 180 13 111 5 177 46 177 150 0 138-137 185-284 185-118 0-220-21-220-133 0-67 36-97 79-125-29-18-50-41-50-87 1-59 27-80 63-108-42-30-73-75-73-141 0-124 92-180 220-183 67-2 126 24 162 55 27-34 60-50 123-50 7 35 7 81 0 117h-81c8 17 13 34 13 61-1 148-143 203-294 173zM402 73c4-75-103-50-170-55-46-4-75 20-75 64 0 56 47 64 105 65 67 1 137-18 140-74zM192-345c0 56 24 90 81 90s79-35 79-90-22-91-79-91-81 35-81 91" id="K"/><path d="M31-409c-8-33-8-74 0-108h206V0c-48 8-90 8-139 0v-409H31zm192-195c-44 7-102 7-146 0-8-46-8-87 0-134 44-8 102-8 146 0 7 41 7 93 0 134" id="L"/><g id="e"><use transform="matrix(0.018,0,0,0.018,0,0)" xlink:href="#D"/><use transform="matrix(0.018,0,0,0.018,8.28,0)" xlink:href="#E"/><use transform="matrix(0.018,0,0,0.018,15.174,0)" xlink:href="#F"/><use transform="matrix(0.018,0,0,0.018,24.570000000000004,0)" xlink:href="#G"/><use transform="matrix(0.018,0,0,0.018,31.806,0)" xlink:href="#E"/><use transform="matrix(0.018,0,0,0.018,38.7,0)" xlink:href="#H"/><use transform="matrix(0.018,0,0,0.018,47.772000000000006,0)" xlink:href="#I"/><use transform="matrix(0.018,0,0,0.018,57.888000000000005,0)" xlink:href="#J"/><use transform="matrix(0.018,0,0,0.018,68.45400000000001,0)" xlink:href="#K"/><use transform="matrix(0.018,0,0,0.018,78.64200000000001,0)" xlink:href="#L"/><use transform="matrix(0.018,0,0,0.018,84.168,0)" xlink:href="#J"/><use transform="matrix(0.018,0,0,0.018,94.73400000000001,0)" xlink:href="#I"/></g><path d="M538-257c0 166-82 269-249 269S41-93 41-257c0-165 81-272 248-272s249 105 249 272zm-353 0c0 91 20 161 104 161 85 0 105-69 105-161s-20-161-105-161c-83 0-104 70-104 161" id="M"/><path d="M550-267C550-68 418 32 209 7v230c-45 7-97 7-142 0v-755c36-7 78-7 115 1 9 20 13 49 17 74 27-48 72-86 146-86 145 0 205 109 205 262zM301-407c-128 0-84 176-92 297 116 32 196-30 190-153-4-79-21-144-98-144" id="N"/><g id="f"><use transform="matrix(0.018,0,0,0.018,0,0)" xlink:href="#D"/><use transform="matrix(0.018,0,0,0.018,8.28,0)" xlink:href="#E"/><use transform="matrix(0.018,0,0,0.018,15.174,0)" xlink:href="#M"/><use transform="matrix(0.018,0,0,0.018,25.613999999999997,0)" xlink:href="#N"/><use transform="matrix(0.018,0,0,0.018,36.251999999999995,0)" xlink:href="#H"/><use transform="matrix(0.018,0,0,0.018,45.324,0)" xlink:href="#I"/><use transform="matrix(0.018,0,0,0.018,55.44,0)" xlink:href="#J"/><use transform="matrix(0.018,0,0,0.018,66.006,0)" xlink:href="#K"/><use transform="matrix(0.018,0,0,0.018,76.19400000000002,0)" xlink:href="#L"/><use transform="matrix(0.018,0,0,0.018,81.72,0)" xlink:href="#J"/><use transform="matrix(0.018,0,0,0.018,92.28600000000002,0)" xlink:href="#I"/></g><path d="M365-517c6 34 7 75 0 108H245V0c-48 8-93 8-141 0v-409H22c-6-34-7-75 0-108h82c-6-146 67-226 203-226 42 0 62 3 95 12-3 45-7 77-21 112-69-16-144-7-136 80v22h120" id="O"/><path d="M7-516c47-9 107-10 153-1l83 382 96-382c41-8 102-7 141 0l94 375 82-375c44-8 98-8 143 1L638 0c-44 6-100 8-142-1l-94-342L305 0c-45 6-100 8-142-1" id="P"/><path d="M41-252c0-190 136-302 339-267v-212c44-7 97-7 141 0v714C453 2 398 14 308 12 139 9 41-78 41-252zm146 0c0 118 81 169 193 139v-297c-120-34-193 40-193 158" id="Q"/><g id="g"><use transform="matrix(0.018,0,0,0.018,0,0)" xlink:href="#O"/><use transform="matrix(0.018,0,0,0.018,7.127999999999999,0)" xlink:href="#M"/><use transform="matrix(0.018,0,0,0.018,17.567999999999998,0)" xlink:href="#G"/><use transform="matrix(0.018,0,0,0.018,24.804,0)" xlink:href="#P"/><use transform="matrix(0.018,0,0,0.018,39.312,0)" xlink:href="#F"/><use transform="matrix(0.018,0,0,0.018,48.708,0)" xlink:href="#G"/><use transform="matrix(0.018,0,0,0.018,55.943999999999996,0)" xlink:href="#Q"/></g><path d="M254 12C185 12 119 2 68-17v-714c48-8 93-8 141 0v264c20-36 73-64 130-62 148 5 210 108 210 262C549-83 438 12 254 12zm46-422c-60 0-91 42-91 110v188c116 25 197-31 192-151-3-87-19-147-101-147" id="R"/><path d="M311-103c45 2 74-7 106-19 16 28 29 63 28 109-48 20-87 25-148 25C127 12 41-90 41-258c0-165 84-266 250-271 61-1 104 9 148 26-1 38-10 78-25 106-38-12-58-17-104-17-88 0-125 63-125 156 0 98 39 152 126 155" id="S"/><path d="M61-731c45-8 95-8 141 0V0c-46 8-95 8-141 0v-731zm161 460l128-246c50-8 104-8 153 0L371-278 525 0c-54 8-99 8-153 0" id="T"/><g id="h"><use transform="matrix(0.018,0,0,0.018,0,0)" xlink:href="#R"/><use transform="matrix(0.018,0,0,0.018,10.62,0)" xlink:href="#F"/><use transform="matrix(0.018,0,0,0.018,20.016,0)" xlink:href="#S"/><use transform="matrix(0.018,0,0,0.018,28.565999999999995,0)" xlink:href="#T"/><use transform="matrix(0.018,0,0,0.018,38.196,0)" xlink:href="#P"/><use transform="matrix(0.018,0,0,0.018,52.70399999999999,0)" xlink:href="#F"/><use transform="matrix(0.018,0,0,0.018,62.099999999999994,0)" xlink:href="#G"/><use transform="matrix(0.018,0,0,0.018,69.336,0)" xlink:href="#Q"/></g><g id="i"><use transform="matrix(0.018,0,0,0.018,0,0)" xlink:href="#D"/><use transform="matrix(0.018,0,0,0.018,8.28,0)" xlink:href="#E"/><use transform="matrix(0.018,0,0,0.018,15.174,0)" xlink:href="#M"/><use transform="matrix(0.018,0,0,0.018,25.613999999999997,0)" xlink:href="#N"/></g></defs></g></svg>