<svg xmlns="http://www.w3.org/2000/svg" 
    xmlns:xlink="http://www.w3.org/1999/xlink" 
    xmlns:lucid="lucid" width="560" height="300">
    <g transform="translate(-160 -100)" lucid:page-tab-id="KMfj-4OXph.0">
        <path d="M700 230c0 16.57-22.4 30-50 30s-50-13.43-50-30 22.4-30 50-30 50 13.43 50 30z" stroke="#000" stroke-width="2" fill="#99d2f2"/>
        <use xlink:href="#a" transform="matrix(1,0,0,1,605,205) translate(20.573999999999998 31.39)"/>
        <path d="M280 230c0 16.57-22.4 30-50 30s-50-13.43-50-30 22.4-30 50-30 50 13.43 50 30z" stroke="#000" stroke-width="2" fill="#a3d977"/>
        <use xlink:href="#b" transform="matrix(1,0,0,1,185,205) translate(21.096000000000004 31.39)"/>
        <path d="M320 215h100v30H320z" stroke="#000" stroke-opacity="0" stroke-width=".5" fill="#fff"/>
        <use xlink:href="#c" transform="matrix(1,0,0,1,325,220) translate(4.338000000000001 16.848000000000003)"/>
        <path d="M282 230h37" stroke="#000" stroke-width="2" fill="none"/>
        <path d="M282.03 231h-1.08l.05-1-.03-1h1.06zM320 231h-1.03v-2H320z"/>
        <path d="M421 230h159.5" stroke="#000" stroke-width="2" fill="none"/>
        <path d="M421.03 231H420v-2h1.03z"/>
        <path d="M595.76 230l-14.26 4.64v-9.28z" stroke="#000" stroke-width="2"/>
        <path d="M420 120h100v60H420z" stroke="#000" stroke-opacity="0" stroke-width="2" fill="#fff" fill-opacity="0"/>
        <use xlink:href="#d" transform="matrix(1,0,0,1,425,125) translate(0.5802469135802397 17.888888888888886)"/>
        <use xlink:href="#e" transform="matrix(1,0,0,1,425,125) translate(50.901234567901234 17.888888888888886)"/>
        <use xlink:href="#f" transform="matrix(1,0,0,1,425,125) translate(7.543209876543209 39.22222222222222)"/>
        <use xlink:href="#g" transform="matrix(1,0,0,1,425,125) translate(25.271604938271604 39.22222222222222)"/>
        <path d="M470 181v78" fill="none"/>
        <path d="M470 181v2.93m0 3.9v5.85m0 3.9v5.85m0 3.9v5.85m0 3.9v5.85m0 3.9v5.85m0 3.9v5.85m0 3.9v5.85m0 3.9V259" stroke="#c92d39" stroke-width="2" fill="none"/>
        <path d="M471 181.03h-2V180h2z" fill="#c92d39"/>
        <path d="M470 258.97V260" stroke="#c92d39" stroke-width="2" fill="none"/>
        <path d="M240 320h120v60H240z" stroke="#7ab648" stroke-width="2" fill="#fff"/>
        <use xlink:href="#h" transform="matrix(1,0,0,1,245,325) translate(5.625 17.799999999999997)"/>
        <use xlink:href="#i" transform="matrix(1,0,0,1,245,325) translate(33 39.4)"/>
        <path d="M370 320h120v60H370z" stroke="#3aa6dd" stroke-width="2" fill="#fff"/>
        <use xlink:href="#j" transform="matrix(1,0,0,1,375,325) translate(-2.3500000000000014 17.799999999999997)"/>
        <use xlink:href="#i" transform="matrix(1,0,0,1,375,325) translate(33 39.4)"/>
        <path d="M300 318v-59.5" stroke="#7ab648" stroke-width="2" fill="none"/>
        <path d="M301 319h-2v-1.03h2z" fill="#7ab648"/>
        <path d="M300 243.24l4.64 14.26h-9.28z" stroke="#7ab648" stroke-width="2" fill="#7ab648"/>
        <path d="M500 320h120v60H500z" stroke="#3aa6dd" stroke-width="2" fill="#fff"/>
        <use xlink:href="#k" transform="matrix(1,0,0,1,505,325) translate(14.125 17.799999999999997)"/>
        <use xlink:href="#i" transform="matrix(1,0,0,1,505,325) translate(33 39.4)"/>
        <path d="M430 318v-59.5" stroke="#3aa6dd" stroke-width="2" fill="none"/>
        <path d="M431 319h-2v-1.03h2z" fill="#3aa6dd"/>
        <path d="M430 243.24l4.64 14.26h-9.28z" stroke="#3aa6dd" stroke-width="2" fill="#3aa6dd"/>
        <path d="M560 318v-59.5" stroke="#3aa6dd" stroke-width="2" fill="none"/>
        <path d="M561 319h-2v-1.03h2z" fill="#3aa6dd"/>
        <path d="M560 243.24l4.64 14.26h-9.28z" stroke="#3aa6dd" stroke-width="2" fill="#3aa6dd"/>
        <defs>
            <path d="M252 8C153 7 99-38 99-143v-291H21l-4-14 172-192h8v127h130c6 23 5 56 0 79H197v234c1 73 0 128 75 128 22 0 42-4 59-8 9 22 10 51 10 78-27 7-56 10-89 10" id="l"/>
            <path d="M147-154c0 102 122 93 204 76v-163c-92-14-204-10-204 87zm-99 2c0-149 148-187 303-167 6-90-33-124-117-124-48 0-87 9-125 20-13-22-19-48-19-79 41-14 101-23 154-23 133 1 204 57 204 191v321C399-2 324 13 261 12 136 11 48-29 48-152" id="m"/>
            <path d="M179 0c-30 5-69 5-99 0v-513c25-5 59-5 84 0 4 18 9 60 9 81 31-50 86-96 175-82 7 27 4 63-1 90-117-14-168 53-168 169V0" id="n"/>
            <path d="M192-174c-26 12-60 61-28 92 76 37 259-7 320 54 40 40 54 120 19 172-46 69-139 105-255 105-119 0-211-26-211-133C37 56 75 13 116-9 91-26 69-49 69-90c0-55 28-86 61-112-40-28-75-76-73-142 4-120 84-178 209-181 60-1 110 20 144 46 28-22 78-38 129-37 6 26 5 62 0 89h-90c14 22 23 47 23 83 0 143-134 201-280 170zm61 345c86 1 165-25 170-93 6-87-123-58-203-65-55-5-90 34-90 84 0 64 58 73 123 74zm-92-515c0 65 36 107 105 107s106-42 106-107c0-66-37-109-106-109-70 0-105 43-105 109" id="o"/>
            <path d="M291-525c162 0 229 122 212 293H154c2 110 56 161 166 162 47 0 92-8 135-25 10 19 18 51 19 79-45 19-96 28-160 28C139 11 49-81 49-253c0-164 78-272 242-272zm117 219c-3-82-37-140-120-140-87 0-124 58-133 140h253" id="p"/>
            <g id="a">
                <use transform="matrix(0.018,0,0,0.018,0,0)" xlink:href="#l"/>
                <use transform="matrix(0.018,0,0,0.018,6.444,0)" xlink:href="#m"/>
                <use transform="matrix(0.018,0,0,0.018,15.75,0)" xlink:href="#n"/>
                <use transform="matrix(0.018,0,0,0.018,22.445999999999998,0)" xlink:href="#o"/>
                <use transform="matrix(0.018,0,0,0.018,32.4,0)" xlink:href="#p"/>
                <use transform="matrix(0.018,0,0,0.018,42.40800000000001,0)" xlink:href="#l"/>
            </g>
            <path d="M527-256c0 162-77 268-239 268S49-94 49-256c0-163 77-269 239-269s239 106 239 269zm-373 0c0 107 33 189 134 189s135-82 135-189-34-188-135-188-134 81-134 188" id="q"/>
            <path d="M207 0c-30 5-67 5-97 0v-435H45c-5-22-5-56 0-78h162V0zm-12-626c-33 5-74 5-107 0-4-31-4-71 0-101 33-5 74-5 107 0 4 31 4 70 0 101" id="r"/>
            <path d="M179 0c-30 5-69 5-99 0v-513c26-5 58-5 84 0 4 18 9 62 9 83 33-51 81-95 164-95 123 0 172 74 172 200V0c-30 5-69 5-99 0v-298c-1-83-18-138-92-138-188 0-129 255-139 436" id="s"/>
            <g id="b">
                <use transform="matrix(0.018,0,0,0.018,0,0)" xlink:href="#q"/>
                <use transform="matrix(0.018,0,0,0.018,10.386,0)" xlink:href="#n"/>
                <use transform="matrix(0.018,0,0,0.018,17.082,0)" xlink:href="#r"/>
                <use transform="matrix(0.018,0,0,0.018,22.266,0)" xlink:href="#o"/>
                <use transform="matrix(0.018,0,0,0.018,32.22,0)" xlink:href="#r"/>
                <use transform="matrix(0.018,0,0,0.018,37.403999999999996,0)" xlink:href="#s"/>
            </g>
            <path d="M271 6C148 5 83-48 84-175v-234H19l-5-20 187-239h23v151h121c7 33 6 74 0 108H224v203c0 62 14 99 76 99 19 0 40-4 55-7 11 30 16 71 11 109-31 7-62 11-95 11" id="t"/>
            <path d="M212 1c-44 7-98 7-142 0v-518c35-8 82-8 116 1 9 19 12 48 16 73 33-47 89-97 176-76 7 38 5 89-3 125-112-16-163 37-163 149V1" id="u"/>
            <path d="M171-168c0 77 92 76 157 63v-132c-70-12-157-5-157 69zm-133 6c0-145 139-179 290-166 10-118-139-96-225-68-17-34-28-56-28-104 50-17 109-29 170-29 140 0 221 65 221 210v300C413-3 343 13 268 12 135 11 38-29 38-162" id="v"/>
            <path d="M312-404c-75 0-100 53-100 133V0c-48 8-94 8-142 0v-517c34-8 82-8 116 0 9 19 12 48 16 72 31-45 74-84 149-84 124 0 177 68 177 199V0c-48 8-94 8-142 0v-292c-1-65-13-112-74-112" id="w"/>
            <path d="M193-98c46 0 94-11 94-56 0-58-73-55-117-71-69-25-119-52-119-142 0-108 88-164 203-162 59 0 107 11 154 28-3 36-15 77-29 103-31-12-71-25-114-25-39 0-72 9-72 44 0 52 68 51 109 65 71 25 127 58 123 151C420-41 326 9 198 12 134 14 87 2 40-16c3-40 15-77 29-108 40 15 74 26 124 26" id="x"/>
            <path d="M31-409c-8-33-8-74 0-108h206V0c-48 8-90 8-139 0v-409H31zm192-195c-44 7-102 7-146 0-8-46-8-87 0-134 44-8 102-8 146 0 7 41 7 93 0 134" id="y"/>
            <path d="M538-257c0 166-82 269-249 269S41-93 41-257c0-165 81-272 248-272s249 105 249 272zm-353 0c0 91 20 161 104 161 85 0 105-69 105-161s-20-161-105-161c-83 0-104 70-104 161" id="z"/>
            <g id="c">
                <use transform="matrix(0.018,0,0,0.018,0,0)" xlink:href="#t"/>
                <use transform="matrix(0.018,0,0,0.018,6.893999999999999,0)" xlink:href="#u"/>
                <use transform="matrix(0.018,0,0,0.018,14.129999999999999,0)" xlink:href="#v"/>
                <use transform="matrix(0.018,0,0,0.018,23.526,0)" xlink:href="#w"/>
                <use transform="matrix(0.018,0,0,0.018,34.092,0)" xlink:href="#x"/>
                <use transform="matrix(0.018,0,0,0.018,42.372,0)" xlink:href="#y"/>
                <use transform="matrix(0.018,0,0,0.018,47.897999999999996,0)" xlink:href="#t"/>
                <use transform="matrix(0.018,0,0,0.018,54.791999999999994,0)" xlink:href="#y"/>
                <use transform="matrix(0.018,0,0,0.018,60.318,0)" xlink:href="#z"/>
                <use transform="matrix(0.018,0,0,0.018,70.758,0)" xlink:href="#w"/>
            </g>
            <path fill="#c92d39" d="M59-47c-2 24 18 29 38 22v24C64 9 27 4 27-40v-127H5v-23h24l9-43h21v43h35v23H59v120" id="A"/>
            <path fill="#c92d39" d="M141-36C126-15 110 5 73 4 37 3 15-17 15-53c-1-64 63-63 125-63 3-35-9-54-41-54-24 1-41 7-42 31l-33-3c5-37 33-52 76-52 45 0 72 20 72 64v82c-1 20 7 32 28 27v20c-31 9-61-2-59-35zM48-53c0 20 12 33 32 33 41-3 63-29 60-74-43 2-92-5-92 41" id="B"/>
            <path fill="#c92d39" d="M114-163C36-179 61-72 57 0H25l-1-190h30c1 12-1 29 2 39 6-27 23-49 58-41v29" id="C"/>
            <path fill="#c92d39" d="M177-190C167-65 218 103 67 71c-23-6-38-20-44-43l32-5c15 47 100 32 89-28v-30C133-14 115 1 83 1 29 1 15-40 15-95c0-56 16-97 71-98 29-1 48 16 59 35 1-10 0-23 2-32h30zM94-22c36 0 50-32 50-73 0-42-14-75-50-75-39 0-46 34-46 75s6 73 46 73" id="D"/>
            <path fill="#c92d39" d="M100-194c63 0 86 42 84 106H49c0 40 14 67 53 68 26 1 43-12 49-29l28 8c-11 28-37 45-77 45C44 4 14-33 15-96c1-61 26-98 85-98zm52 81c6-60-76-77-97-28-3 7-6 17-6 28h103" id="E"/>
            <g id="d">
                <use transform="matrix(0.04938271604938272,0,0,0.04938271604938272,0,0)" xlink:href="#A"/>
                <use transform="matrix(0.04938271604938272,0,0,0.04938271604938272,4.938271604938272,0)" xlink:href="#B"/>
                <use transform="matrix(0.04938271604938272,0,0,0.04938271604938272,14.814814814814817,0)" xlink:href="#C"/>
                <use transform="matrix(0.04938271604938272,0,0,0.04938271604938272,20.69135802469136,0)" xlink:href="#D"/>
                <use transform="matrix(0.04938271604938272,0,0,0.04938271604938272,30.567901234567906,0)" xlink:href="#E"/>
                <use transform="matrix(0.04938271604938272,0,0,0.04938271604938272,40.44444444444445,0)" xlink:href="#A"/>
            </g>
            <path fill="#c92d39" d="M135-143c-3-34-86-38-87 0 15 53 115 12 119 90S17 21 10-45l28-5c4 36 97 45 98 0-10-56-113-15-118-90-4-57 82-63 122-42 12 7 21 19 24 35" id="F"/>
            <g id="e">
                <use transform="matrix(0.04938271604938272,0,0,0.04938271604938272,0,0)" xlink:href="#F"/>
                <use transform="matrix(0.04938271604938272,0,0,0.04938271604938272,8.88888888888889,0)" xlink:href="#A"/>
                <use transform="matrix(0.04938271604938272,0,0,0.04938271604938272,13.827160493827162,0)" xlink:href="#B"/>
                <use transform="matrix(0.04938271604938272,0,0,0.04938271604938272,23.703703703703706,0)" xlink:href="#A"/>
                <use transform="matrix(0.04938271604938272,0,0,0.04938271604938272,28.641975308641978,0)" xlink:href="#E"/>
            </g>
            <path fill="#c92d39" d="M24-231v-30h32v30H24zM24 0v-190h32V0H24" id="G"/>
            <g id="f">
                <use transform="matrix(0.04938271604938272,0,0,0.04938271604938272,0,0)" xlink:href="#G"/>
                <use transform="matrix(0.04938271604938272,0,0,0.04938271604938272,3.901234567901235,0)" xlink:href="#F"/>
            </g>
            <path fill="#c92d39" d="M115-194c55 1 70 41 70 98S169 2 115 4C84 4 66-9 55-30l1 105H24l-1-265h31l2 30c10-21 28-34 59-34zm-8 174c40 0 45-34 45-75s-6-73-45-74c-42 0-51 32-51 76 0 43 10 73 51 73" id="H"/>
            <path fill="#c92d39" d="M24 0v-261h32V0H24" id="I"/>
            <path fill="#c92d39" d="M85-194c31 0 48 13 60 33l-1-100h32l1 261h-30c-2-10 0-23-3-31C134-8 116 4 85 4 32 4 16-35 15-94c0-66 23-100 70-100zm9 24c-40 0-46 34-46 75 0 40 6 74 45 74 42 0 51-32 51-76 0-42-9-74-50-73" id="J"/>
            <g id="g">
                <use transform="matrix(0.04938271604938272,0,0,0.04938271604938272,0,0)" xlink:href="#B"/>
                <use transform="matrix(0.04938271604938272,0,0,0.04938271604938272,9.876543209876544,0)" xlink:href="#H"/>
                <use transform="matrix(0.04938271604938272,0,0,0.04938271604938272,19.75308641975309,0)" xlink:href="#H"/>
                <use transform="matrix(0.04938271604938272,0,0,0.04938271604938272,29.629629629629633,0)" xlink:href="#I"/>
                <use transform="matrix(0.04938271604938272,0,0,0.04938271604938272,33.53086419753087,0)" xlink:href="#G"/>
                <use transform="matrix(0.04938271604938272,0,0,0.04938271604938272,37.4320987654321,0)" xlink:href="#E"/>
                <use transform="matrix(0.04938271604938272,0,0,0.04938271604938272,47.308641975308646,0)" xlink:href="#J"/>
            </g>
            <path d="M133-34C117-15 103 5 69 4 32 3 11-16 11-54c-1-60 55-63 116-61 1-26-3-47-28-47-18 1-26 9-28 27l-52-2c7-38 36-58 82-57s74 22 75 68l1 82c-1 14 12 18 25 15v27c-30 8-71 5-69-32zm-48 3c29 0 43-24 42-57-32 0-66-3-65 30 0 17 8 27 23 27" id="K"/>
            <path d="M121-226c-27-7-43 5-38 36h38v33H83V0H34v-157H6v-33h28c-9-59 32-81 87-68v32" id="L"/>
            <path d="M115-3C79 11 28 4 28-45v-112H4v-33h27l15-45h31v45h36v33H77v99c-1 23 16 31 38 25v30" id="M"/>
            <path d="M185-48c-13 30-37 53-82 52C43 2 14-33 14-96s30-98 90-98c62 0 83 45 84 108H66c0 31 8 55 39 56 18 0 30-7 34-22zm-45-69c5-46-57-63-70-21-2 6-4 13-4 21h74" id="N"/>
            <path d="M135-150c-39-12-60 13-60 57V0H25l-1-190h47c2 13-1 29 3 40 6-28 27-53 61-41v41" id="O"/>
            <path d="M-4 44V30h207v14H-4" id="P"/>
            <path d="M110-194c64 0 96 36 96 99 0 64-35 99-97 99-61 0-95-36-95-99 0-62 34-99 96-99zm-1 164c35 0 45-28 45-65 0-40-10-65-43-65-34 0-45 26-45 65 0 36 10 65 43 65" id="Q"/>
            <path d="M25-224v-37h50v37H25zM25 0v-190h50V0H25" id="R"/>
            <path d="M195-6C206 82 75 100 31 46c-4-6-6-13-8-21l49-6c3 16 16 24 34 25 40 0 42-37 40-79-11 22-30 35-61 35-53 0-70-43-70-97 0-56 18-96 73-97 30 0 46 14 59 34l2-30h47zm-90-29c32 0 41-27 41-63 0-35-9-62-40-62-32 0-39 29-40 63 0 36 9 62 39 62" id="S"/>
            <path d="M135-194c87-1 58 113 63 194h-50c-7-57 23-157-34-157-59 0-34 97-39 157H25l-1-190h47c2 12-1 28 3 38 12-26 28-41 61-42" id="T"/>
            <g id="h">
                <use transform="matrix(0.05,0,0,0.05,0,0)" xlink:href="#K"/>
                <use transform="matrix(0.05,0,0,0.05,10,0)" xlink:href="#L"/>
                <use transform="matrix(0.05,0,0,0.05,15.949999999999998,0)" xlink:href="#M"/>
                <use transform="matrix(0.05,0,0,0.05,21.9,0)" xlink:href="#N"/>
                <use transform="matrix(0.05,0,0,0.05,31.899999999999995,0)" xlink:href="#O"/>
                <use transform="matrix(0.05,0,0,0.05,38.9,0)" xlink:href="#P"/>
                <use transform="matrix(0.05,0,0,0.05,48.9,0)" xlink:href="#Q"/>
                <use transform="matrix(0.05,0,0,0.05,59.85,0)" xlink:href="#O"/>
                <use transform="matrix(0.05,0,0,0.05,66.85,0)" xlink:href="#R"/>
                <use transform="matrix(0.05,0,0,0.05,71.85,0)" xlink:href="#S"/>
                <use transform="matrix(0.05,0,0,0.05,82.8,0)" xlink:href="#R"/>
                <use transform="matrix(0.05,0,0,0.05,87.8,0)" xlink:href="#T"/>
            </g>
            <path d="M100-194c63 0 86 42 84 106H49c0 40 14 67 53 68 26 1 43-12 49-29l28 8c-11 28-37 45-77 45C44 4 14-33 15-96c1-61 26-98 85-98zm52 81c6-60-76-77-97-28-3 7-6 17-6 28h103" id="U"/>
            <path d="M108 0H70L1-190h34L89-25l56-165h34" id="V"/>
            <path d="M117-194c89-4 53 116 60 194h-32v-121c0-31-8-49-39-48C34-167 62-67 57 0H25l-1-190h30c1 10-1 24 2 32 11-22 29-35 61-36" id="W"/>
            <path d="M59-47c-2 24 18 29 38 22v24C64 9 27 4 27-40v-127H5v-23h24l9-43h21v43h35v23H59v120" id="X"/>
            <g id="i">
                <use transform="matrix(0.05,0,0,0.05,0,0)" xlink:href="#U"/>
                <use transform="matrix(0.05,0,0,0.05,10,0)" xlink:href="#V"/>
                <use transform="matrix(0.05,0,0,0.05,19,0)" xlink:href="#U"/>
                <use transform="matrix(0.05,0,0,0.05,29,0)" xlink:href="#W"/>
                <use transform="matrix(0.05,0,0,0.05,39,0)" xlink:href="#X"/>
            </g>
            <path d="M135-194c52 0 70 43 70 98 0 56-19 99-73 100-30 1-46-15-58-35L72 0H24l1-261h50v104c11-23 29-37 60-37zM114-30c31 0 40-27 40-66 0-37-7-63-39-63s-41 28-41 65c0 36 8 64 40 64" id="Y"/>
            <g id="j">
                <use transform="matrix(0.05,0,0,0.05,0,0)" xlink:href="#Y"/>
                <use transform="matrix(0.05,0,0,0.05,10.950000000000001,0)" xlink:href="#N"/>
                <use transform="matrix(0.05,0,0,0.05,20.950000000000003,0)" xlink:href="#L"/>
                <use transform="matrix(0.05,0,0,0.05,26.900000000000002,0)" xlink:href="#Q"/>
                <use transform="matrix(0.05,0,0,0.05,37.85,0)" xlink:href="#O"/>
                <use transform="matrix(0.05,0,0,0.05,44.85,0)" xlink:href="#N"/>
                <use transform="matrix(0.05,0,0,0.05,54.85,0)" xlink:href="#P"/>
                <use transform="matrix(0.05,0,0,0.05,64.85,0)" xlink:href="#M"/>
                <use transform="matrix(0.05,0,0,0.05,70.8,0)" xlink:href="#K"/>
                <use transform="matrix(0.05,0,0,0.05,80.8,0)" xlink:href="#O"/>
                <use transform="matrix(0.05,0,0,0.05,87.8,0)" xlink:href="#S"/>
                <use transform="matrix(0.05,0,0,0.05,98.75,0)" xlink:href="#N"/>
                <use transform="matrix(0.05,0,0,0.05,108.75,0)" xlink:href="#M"/>
            </g>
            <g id="k">
                <use transform="matrix(0.05,0,0,0.05,0,0)" xlink:href="#Q"/>
                <use transform="matrix(0.05,0,0,0.05,10.950000000000001,0)" xlink:href="#T"/>
                <use transform="matrix(0.05,0,0,0.05,21.900000000000002,0)" xlink:href="#P"/>
                <use transform="matrix(0.05,0,0,0.05,31.900000000000002,0)" xlink:href="#M"/>
                <use transform="matrix(0.05,0,0,0.05,37.85,0)" xlink:href="#K"/>
                <use transform="matrix(0.05,0,0,0.05,47.85,0)" xlink:href="#O"/>
                <use transform="matrix(0.05,0,0,0.05,54.85,0)" xlink:href="#S"/>
                <use transform="matrix(0.05,0,0,0.05,65.8,0)" xlink:href="#N"/>
                <use transform="matrix(0.05,0,0,0.05,75.8,0)" xlink:href="#M"/>
            </g>
        </defs>
    </g>
</svg>